<svg width="134" height="116" viewBox="0 0 134 116" fill="none" xmlns="http://www.w3.org/2000/svg">
<path d="M82.4594 95.8007C76.7527 90.4404 69.3506 90.7872 62.864 93.5766C56.3774 96.3659 50.419 101.33 44.099 104.86C38.8006 107.818 33.2407 109.761 27.6129 110.625C19.5581 111.854 10.563 110.352 4.95125 101.691C-1.29842 92.0406 -0.818431 74.6353 5.93836 65.7825C9.37722 61.2769 13.8797 59.065 17.8059 55.5425C21.7322 52.0199 25.3672 46.1818 25.0329 39.392C24.7231 33.1114 21.1239 28.2809 17.3988 25.2553C14.5201 22.9151 10.9751 20.3606 10.6284 15.5164C10.2928 10.8278 13.2739 7.15507 16.1204 5.06611C25.4067 -1.74963 36.8498 -1.6841 46.104 5.23814C49.4047 7.70667 52.4388 10.9903 55.8999 12.9154C64.9875 17.9671 75.0018 12.8813 84.6249 11.0217C92.7686 9.44746 101.121 10.2626 109.056 13.4069C113.821 15.2952 118.605 18.1856 121.953 23.5609C124.367 27.4385 125.871 32.3455 127.283 37.1924C128.788 42.3615 130.236 47.5667 131.625 52.8077C132.458 55.948 133.279 59.162 133.494 62.5275C133.884 68.6278 132.241 74.6572 130.003 79.8058C124.684 92.0269 115.734 100.622 106.04 102.806C96.3469 104.991 86.092 100.724 78.5739 91.3934" fill="white" fill-opacity="0.77"/>
<path d="M90.5267 100.801C85.721 95.4404 79.4876 95.7872 74.0252 98.5766C68.5629 101.366 63.5452 106.33 58.2231 109.86C53.7613 112.818 49.0793 114.761 44.3401 115.625C37.5571 116.854 29.9823 115.352 25.2566 106.691C19.9937 97.0406 20.3979 79.6353 26.0879 70.7825C28.9837 66.2769 32.7753 64.065 36.0816 60.5425C39.3879 57.0199 42.449 51.1818 42.1674 44.392C41.9066 38.1114 38.8757 33.2809 35.7387 30.2553C33.3146 27.9151 30.3293 25.3606 30.0374 20.5164C29.7547 15.8278 32.2651 12.1551 34.6623 10.0661C42.4823 3.25037 52.1186 3.3159 59.9116 10.2381C62.6911 12.7067 65.2462 15.9903 68.1607 17.9154C75.8135 22.9671 84.2465 17.8813 92.3502 16.0217C99.2081 14.4475 106.242 15.2626 112.924 18.4069C116.937 20.2952 120.965 23.1856 123.784 28.5609C125.818 32.4385 127.084 37.3455 128.273 42.1924C129.541 47.3615 130.759 52.5667 131.929 57.8077C132.631 60.948 133.322 64.162 133.504 67.5275C133.832 73.6278 132.448 79.6572 130.563 84.8058C126.085 97.0269 118.547 105.622 110.384 107.806C102.221 109.991 93.5857 105.724 87.2546 96.3934" fill="white" fill-opacity="0.5"/>
<path d="M66.1229 70.4789H61.8463C61.3728 71.5468 61.1361 72.2872 61.1361 72.7003C61.1361 73.0025 61.2469 73.1939 61.4685 73.2745C61.7003 73.3551 62.0428 73.3954 62.4961 73.3954V73.9999H58.3556V73.3954C58.5973 73.3652 58.8039 73.3249 58.9751 73.2745C59.1565 73.2241 59.3126 73.1536 59.4436 73.063C59.5846 72.9723 59.7055 72.8564 59.8063 72.7154C59.907 72.5643 60.0027 72.3829 60.0934 72.1714L64.0677 62.2128H65.186L68.7977 71.038C69.0092 71.5518 69.1855 71.9548 69.3266 72.2469C69.4777 72.5391 69.6338 72.7658 69.795 72.927C69.9663 73.0781 70.1577 73.1839 70.3693 73.2443C70.5909 73.3047 70.873 73.3501 71.2155 73.3803V73.9999H65.5033V73.3803C65.9869 73.3602 66.3345 73.3098 66.546 73.2292C66.7576 73.1486 66.8634 72.9874 66.8634 72.7456C66.8634 72.6046 66.8281 72.4232 66.7576 72.2016C66.6871 71.98 66.5914 71.708 66.4705 71.3856L66.1229 70.4789ZM62.1939 69.5722H65.7905L64.0526 64.9934H63.9922L62.1939 69.5722ZM82.0595 73.9999H70.9978V73.6523L78.599 63.1497H74.7757C74.0302 63.1497 73.4661 63.3361 73.0832 63.7089C72.7105 64.0816 72.4536 64.6609 72.3125 65.4467H71.7232L71.965 62.3639H81.7573V62.7115L74.2317 73.1536H78.5536C79.0976 73.1536 79.5409 73.1083 79.8834 73.0176C80.2361 72.927 80.5181 72.7658 80.7297 72.5341C80.9513 72.3023 81.1226 71.9951 81.2435 71.6122C81.3644 71.2294 81.4702 70.7408 81.5608 70.1464H82.256L82.0595 73.9999ZM88.7521 73.9999H83.3572V73.3954C83.6998 73.3853 83.9718 73.3551 84.1733 73.3047C84.3848 73.2443 84.546 73.1385 84.6568 72.9874C84.7676 72.8363 84.8432 72.6247 84.8835 72.3527C84.9238 72.0706 84.9439 71.6928 84.9439 71.2193V65.1445C84.9439 64.7214 84.9238 64.3738 84.8835 64.1018C84.8533 63.8197 84.7878 63.5981 84.687 63.4369C84.5863 63.2757 84.4402 63.1649 84.2488 63.1044C84.0675 63.0339 83.8206 62.9886 83.5083 62.9684V62.3639H88.601V62.9684C88.2886 62.9886 88.0368 63.0339 87.8454 63.1044C87.664 63.1649 87.523 63.2757 87.4222 63.4369C87.3215 63.5981 87.251 63.8197 87.2107 64.1018C87.1805 64.3738 87.1654 64.7214 87.1654 65.1445V71.2193C87.1654 71.6928 87.1805 72.0706 87.2107 72.3527C87.251 72.6247 87.3265 72.8363 87.4374 72.9874C87.5583 73.1385 87.7194 73.2443 87.9209 73.3047C88.1325 73.3551 88.4095 73.3853 88.7521 73.3954V73.9999ZM96.2473 62.2128C97.154 62.2128 98.0003 62.369 98.7861 62.6813C99.5719 62.9936 100.252 63.4218 100.826 63.9658C101.41 64.5098 101.869 65.1495 102.201 65.8849C102.534 66.6204 102.7 67.4163 102.7 68.2726C102.7 69.0886 102.529 69.8543 102.186 70.5695C101.854 71.2848 101.395 71.9094 100.811 72.4434C100.237 72.9673 99.5568 73.3853 98.7709 73.6976C97.9851 73.9999 97.1439 74.151 96.2473 74.151C95.3507 74.151 94.5095 73.9999 93.7237 73.6976C92.9379 73.3853 92.2528 72.9673 91.6685 72.4434C91.0842 71.9094 90.6258 71.2848 90.2933 70.5695C89.9609 69.8543 89.7947 69.0886 89.7947 68.2726C89.7947 67.4163 89.9609 66.6204 90.2933 65.8849C90.6258 65.1495 91.0791 64.5098 91.6534 63.9658C92.2377 63.4218 92.9228 62.9936 93.7086 62.6813C94.4944 62.369 95.3406 62.2128 96.2473 62.2128ZM96.2473 73.1687C96.8316 73.1687 97.3605 73.0579 97.834 72.8363C98.3075 72.6046 98.7105 72.2822 99.043 71.8691C99.3754 71.446 99.6273 70.9373 99.7985 70.3429C99.9799 69.7384 100.071 69.0634 100.071 68.3179C100.071 67.5321 99.9799 66.8269 99.7985 66.2023C99.6273 65.5676 99.3754 65.0286 99.043 64.5853C98.7105 64.132 98.3075 63.7895 97.834 63.5578C97.3605 63.316 96.8316 63.1951 96.2473 63.1951C95.6529 63.1951 95.119 63.316 94.6455 63.5578C94.1821 63.7895 93.7841 64.132 93.4517 64.5853C93.1192 65.0286 92.8623 65.5676 92.681 66.2023C92.5097 66.8269 92.4241 67.5321 92.4241 68.3179C92.4241 69.0634 92.5097 69.7384 92.681 70.3429C92.8623 70.9373 93.1192 71.446 93.4517 71.8691C93.7841 72.2822 94.1821 72.6046 94.6455 72.8363C95.119 73.0579 95.6529 73.1687 96.2473 73.1687ZM114.134 73.9999H103.722V73.3954C104.055 73.3853 104.327 73.3551 104.538 73.3047C104.75 73.2544 104.911 73.1687 105.022 73.0478C105.133 72.927 105.208 72.7557 105.248 72.5341C105.289 72.3124 105.309 72.0253 105.309 71.6727V64.6911C105.309 64.3385 105.289 64.0564 105.248 63.8449C105.218 63.6232 105.153 63.452 105.052 63.3311C104.951 63.2001 104.805 63.1145 104.614 63.0742C104.432 63.0238 104.191 62.9886 103.888 62.9684V62.3639H109.102V62.9684C108.759 62.9785 108.482 63.0087 108.271 63.0591C108.069 63.1094 107.913 63.2001 107.802 63.3311C107.691 63.4621 107.616 63.6434 107.576 63.8751C107.545 64.1068 107.53 64.4141 107.53 64.7969V71.1287C107.53 71.5518 107.571 71.8994 107.651 72.1714C107.742 72.4333 107.893 72.6398 108.104 72.7909C108.316 72.932 108.598 73.0327 108.951 73.0932C109.303 73.1436 109.742 73.1687 110.265 73.1687C110.85 73.1687 111.338 73.1335 111.731 73.063C112.124 72.9924 112.452 72.8615 112.714 72.6701C112.986 72.4686 113.202 72.2016 113.363 71.8691C113.525 71.5367 113.661 71.1035 113.771 70.5695H114.376L114.134 73.9999ZM120.54 73.9999H115.145V73.3954C115.487 73.3853 115.759 73.3551 115.961 73.3047C116.172 73.2443 116.334 73.1385 116.444 72.9874C116.555 72.8363 116.631 72.6247 116.671 72.3527C116.711 72.0706 116.731 71.6928 116.731 71.2193V65.1445C116.731 64.7214 116.711 64.3738 116.671 64.1018C116.641 63.8197 116.575 63.5981 116.475 63.4369C116.374 63.2757 116.228 63.1649 116.036 63.1044C115.855 63.0339 115.608 62.9886 115.296 62.9684V62.3639H120.388V62.9684C120.076 62.9886 119.824 63.0339 119.633 63.1044C119.452 63.1649 119.31 63.2757 119.21 63.4369C119.109 63.5981 119.038 63.8197 118.998 64.1018C118.968 64.3738 118.953 64.7214 118.953 65.1445V71.2193C118.953 71.6928 118.968 72.0706 118.998 72.3527C119.038 72.6247 119.114 72.8363 119.225 72.9874C119.346 73.1385 119.507 73.2443 119.708 73.3047C119.92 73.3551 120.197 73.3853 120.54 73.3954V73.9999Z" fill="black"/>
<path d="M48.2624 67.8176V65.6401C48.2624 63.188 50.2571 61.1936 52.7089 61.1936C61.953 61.1932 69.4738 53.6729 69.4738 44.4288C69.4738 35.1846 61.953 27.6639 52.7089 27.6639L30.2081 27.6639C29.3907 27.6639 28.7282 28.3264 28.7282 29.1438V76.6967C28.7282 77.5141 29.3907 78.1766 30.2081 78.1766H37.9033C43.6155 78.1766 48.2624 73.5297 48.2624 67.8176ZM52.7089 30.6237C60.3213 30.6237 66.514 36.8164 66.514 44.4288C66.514 52.0408 60.321 58.2339 52.7089 58.2339C48.625 58.2339 45.3027 61.5563 45.3027 65.6401V67.8176C45.3027 71.3908 42.7564 74.3806 39.3832 75.0681V30.6237H52.7089Z" fill="black"/>
<rect x="48.1637" y="27.6639" width="1.57852" height="11.9376" fill="black"/>
<path d="M43.7241 40.1937C43.7241 39.3219 44.4308 38.6152 45.3026 38.6152H52.6033C53.4751 38.6152 54.1818 39.3219 54.1818 40.1937V58.3326C54.1818 59.0408 53.7102 59.6624 53.0281 59.8529L48.403 61.1452C47.8322 61.3047 47.3989 61.7705 47.2809 62.3513L45.014 73.5114C44.9523 73.815 44.6854 74.0332 44.3756 74.0332C44.0158 74.0332 43.7241 73.7416 43.7241 73.3818V40.1937Z" fill="black"/>
<circle cx="48.953" cy="39.6018" r="1.97315" fill="black"/>
<path d="M63.2583 32.8927H64.8368V39.6014H63.2583V32.8927Z" fill="black"/>
<path d="M58.1282 40.1937C58.1282 39.3219 58.8349 38.6152 59.7067 38.6152H67.0074C67.8791 38.6152 68.5859 39.3219 68.5859 40.1937V47.5848C68.5859 47.9714 68.444 48.3446 68.1872 48.6335L59.3179 58.6115C59.1887 58.7568 59.0035 58.84 58.809 58.84C58.433 58.84 58.1282 58.5351 58.1282 58.1591V40.1937Z" fill="black"/>
<circle cx="64.0476" cy="39.6018" r="1.97315" fill="black"/>
</svg>
