<svg width="207" height="104" viewBox="0 0 207 104" fill="none" xmlns="http://www.w3.org/2000/svg">
<path d="M31.2237 102.953C31.2237 102.953 24.9012 89.8039 28.0721 78.8483C29.4325 74.2615 29.2677 69.3571 27.6026 64.8719C26.7984 62.7489 25.8014 60.704 24.6242 58.7629" stroke="#535461" stroke-width="0.384814" stroke-miterlimit="10"/>
<path d="M26.5732 51.846C26.8502 53.5391 24.5856 58.9496 24.5856 58.9496C24.5856 58.9496 20.7202 54.5396 20.4431 52.8465C20.3104 52.0336 20.5061 51.2013 20.9871 50.5326C21.4681 49.864 22.195 49.4138 23.0079 49.2812C23.8208 49.1485 24.6531 49.3442 25.3217 49.8252C25.9903 50.3062 26.4405 51.0331 26.5732 51.846Z" fill="white"/>
<path d="M33.1709 60.3984C32.484 61.9704 27.643 65.2817 27.643 65.2817C27.643 65.2817 26.7926 59.4787 27.4814 57.9067C27.8118 57.1523 28.4284 56.56 29.1956 56.2601C29.9627 55.9603 30.8175 55.9774 31.572 56.3078C32.3265 56.6383 32.9188 57.2549 33.2186 58.022C33.5185 58.7891 33.5013 59.6439 33.1709 60.3984Z" fill="white"/>
<path d="M35.5663 76.4586C34.1791 77.4668 28.328 77.8824 28.328 77.8824C28.328 77.8824 30.5253 72.4431 31.9125 71.4349C32.5787 70.9501 33.4102 70.7498 34.224 70.8781C35.0379 71.0064 35.7675 71.4527 36.2522 72.1189C36.737 72.7851 36.9373 73.6166 36.809 74.4304C36.6808 75.2443 36.2344 75.9739 35.5682 76.4586H35.5663Z" fill="white"/>
<path d="M34.6409 89.0189C33.4442 90.2484 27.7489 91.6433 27.7489 91.6433C27.7489 91.6433 28.9938 85.9135 30.1906 84.684C30.4752 84.3918 30.8146 84.1585 31.1894 83.9974C31.5642 83.8364 31.967 83.7507 32.3749 83.7454C32.7828 83.74 33.1878 83.8151 33.5667 83.9662C33.9456 84.1173 34.291 84.3416 34.5832 84.6263C34.8754 84.9109 35.1087 85.2503 35.2698 85.6251C35.4308 85.9999 35.5165 86.4027 35.5218 86.8106C35.5272 87.2185 35.4521 87.6235 35.301 88.0024C35.1499 88.3813 34.9256 88.7267 34.6409 89.0189Z" fill="white"/>
<path d="M21.259 66.6575C22.6674 67.6388 28.5243 67.9371 28.5243 67.9371C28.5243 67.9371 26.2154 62.5497 24.8147 61.5626C24.4807 61.3175 24.101 61.1417 23.6981 61.0454C23.2951 60.9492 22.877 60.9345 22.4683 61.0022C22.0596 61.07 21.6686 61.2187 21.3182 61.4398C20.9678 61.6609 20.6652 61.9498 20.4281 62.2895C20.191 62.6292 20.0242 63.0129 19.9376 63.418C19.851 63.8232 19.8462 64.2415 19.9236 64.6485C20.0011 65.0555 20.1591 65.4429 20.3884 65.7879C20.6177 66.1329 20.9137 66.4286 21.259 66.6575Z" fill="white"/>
<path d="M20.3644 81.3707C21.9998 81.8864 27.6758 80.4183 27.6758 80.4183C27.6758 80.4183 23.8662 75.9602 22.2288 75.4446C21.4492 75.2188 20.6122 75.307 19.8967 75.6903C19.1813 76.0736 18.6442 76.7217 18.4004 77.4958C18.1566 78.27 18.2254 79.1089 18.592 79.833C18.9587 80.5571 19.5941 81.109 20.3624 81.3707H20.3644Z" fill="white"/>
<path d="M21.4553 95.7706C22.9811 96.5556 28.8244 96.0688 28.8244 96.0688C28.8244 96.0688 25.821 91.0316 24.2952 90.2466C23.9325 90.0601 23.5366 89.9469 23.1301 89.9134C22.7237 89.88 22.3146 89.9269 21.9263 90.0515C21.5379 90.1761 21.1779 90.376 20.8669 90.6397C20.5558 90.9035 20.2997 91.2259 20.1132 91.5886C19.9268 91.9513 19.8135 92.3472 19.7801 92.7537C19.7466 93.1602 19.7935 93.5692 19.9181 93.9575C20.0428 94.3459 20.2426 94.7059 20.5064 95.0169C20.7701 95.328 21.0926 95.5841 21.4553 95.7706Z" fill="white"/>
<path d="M26.5732 51.846C26.8502 53.5391 24.5856 58.9496 24.5856 58.9496C24.5856 58.9496 20.7202 54.5396 20.4431 52.8465C20.3104 52.0336 20.5061 51.2013 20.9871 50.5326C21.4681 49.864 22.195 49.4138 23.0079 49.2812C23.8208 49.1485 24.6531 49.3442 25.3217 49.8252C25.9903 50.3062 26.4405 51.0331 26.5732 51.846Z" fill="white"/>
<path d="M33.1709 60.3984C32.484 61.9704 27.643 65.2817 27.643 65.2817C27.643 65.2817 26.7926 59.4787 27.4814 57.9067C27.8118 57.1523 28.4284 56.56 29.1956 56.2601C29.9627 55.9603 30.8175 55.9774 31.572 56.3078C32.3265 56.6383 32.9188 57.2549 33.2186 58.022C33.5185 58.7891 33.5013 59.6439 33.1709 60.3984Z" fill="white"/>
<path d="M35.5663 76.4586C34.1791 77.4668 28.328 77.8824 28.328 77.8824C28.328 77.8824 30.5253 72.4431 31.9125 71.4349C32.5787 70.9501 33.4102 70.7498 34.224 70.8781C35.0379 71.0064 35.7675 71.4527 36.2522 72.1189C36.737 72.7851 36.9373 73.6166 36.809 74.4304C36.6808 75.2443 36.2344 75.9739 35.5682 76.4586H35.5663Z" fill="white"/>
<path d="M34.6409 89.0189C33.4442 90.2484 27.7489 91.6433 27.7489 91.6433C27.7489 91.6433 28.9938 85.9135 30.1906 84.684C30.4752 84.3918 30.8146 84.1585 31.1894 83.9974C31.5642 83.8364 31.967 83.7507 32.3749 83.7454C32.7828 83.74 33.1878 83.8151 33.5667 83.9662C33.9456 84.1173 34.291 84.3416 34.5832 84.6263C34.8754 84.9109 35.1087 85.2503 35.2698 85.6251C35.4308 85.9999 35.5165 86.4027 35.5218 86.8106C35.5272 87.2185 35.4521 87.6235 35.301 88.0024C35.1499 88.3813 34.9256 88.7267 34.6409 89.0189Z" fill="white"/>
<path d="M21.259 66.6575C22.6674 67.6388 28.5243 67.9371 28.5243 67.9371C28.5243 67.9371 26.2154 62.5497 24.8147 61.5626C24.4807 61.3175 24.101 61.1417 23.6981 61.0454C23.2951 60.9492 22.877 60.9345 22.4683 61.0022C22.0596 61.07 21.6686 61.2187 21.3182 61.4398C20.9678 61.6609 20.6652 61.9498 20.4281 62.2895C20.191 62.6292 20.0242 63.0129 19.9376 63.418C19.851 63.8232 19.8462 64.2415 19.9236 64.6485C20.0011 65.0555 20.1591 65.4429 20.3884 65.7879C20.6177 66.1329 20.9137 66.4286 21.259 66.6575Z" fill="white"/>
<path d="M20.3644 81.3707C21.9998 81.8864 27.6758 80.4183 27.6758 80.4183C27.6758 80.4183 23.8662 75.9602 22.2288 75.4446C21.4492 75.2188 20.6122 75.307 19.8967 75.6903C19.1813 76.0736 18.6442 76.7217 18.4004 77.4958C18.1566 78.27 18.2254 79.1089 18.592 79.833C18.9587 80.5571 19.5941 81.109 20.3624 81.3707H20.3644Z" fill="white"/>
<path d="M21.4553 95.7706C22.9811 96.5556 28.8244 96.0688 28.8244 96.0688C28.8244 96.0688 25.821 91.0316 24.2952 90.2466C23.9325 90.0601 23.5366 89.9469 23.1301 89.9134C22.7237 89.88 22.3146 89.9269 21.9263 90.0515C21.5379 90.1761 21.1779 90.376 20.8669 90.6397C20.5558 90.9035 20.2997 91.2259 20.1132 91.5886C19.9268 91.9513 19.8135 92.3472 19.7801 92.7537C19.7466 93.1602 19.7935 93.5692 19.9181 93.9575C20.0428 94.3459 20.2426 94.7059 20.5064 95.0169C20.7701 95.328 21.0926 95.5841 21.4553 95.7706Z" fill="white"/>
<path d="M31.2525 102.47C31.2525 102.47 20.1429 93.0113 18.6037 81.7093C17.9854 76.964 15.8445 72.5472 12.5025 69.1221C10.9079 67.5088 9.16894 66.0449 7.30748 64.7487" stroke="#535461" stroke-width="0.384814" stroke-miterlimit="10"/>
<path d="M6.29163 57.6315C7.23058 59.0669 7.3518 64.9315 7.3518 64.9315C7.3518 64.9315 2.03175 62.4667 1.0928 61.0314C0.856243 60.6905 0.690392 60.3057 0.605045 59.8996C0.519697 59.4936 0.516582 59.0746 0.595886 58.6673C0.67519 58.26 0.835303 57.8728 1.06677 57.5284C1.29824 57.1841 1.59636 56.8896 1.94354 56.6624C2.29072 56.4352 2.6799 56.2799 3.08812 56.2056C3.49633 56.1313 3.91529 56.1396 4.32025 56.2299C4.72521 56.3202 5.10796 56.4908 5.4459 56.7316C5.78383 56.9723 6.0701 57.2783 6.28779 57.6315H6.29163Z" fill="white"/>
<path d="M15.7889 62.7747C15.7889 64.491 12.7104 69.4782 12.7104 69.4782C12.7104 69.4782 9.58184 64.5179 9.57415 62.8036C9.56209 62.3893 9.63303 61.9768 9.7828 61.5903C9.93256 61.2039 10.1581 60.8513 10.4462 60.5533C10.7343 60.2554 11.0791 60.018 11.4602 59.8553C11.8414 59.6926 12.2513 59.6078 12.6658 59.6059C13.0802 59.6039 13.4909 59.6849 13.8735 59.8441C14.2562 60.0033 14.6032 60.2374 14.894 60.5327C15.1849 60.828 15.4137 61.1784 15.567 61.5635C15.7204 61.9485 15.7952 62.3604 15.787 62.7747H15.7889Z" fill="white"/>
<path d="M24.4856 76.4895C23.6256 77.9729 18.446 80.7224 18.446 80.7224C18.446 80.7224 18.2536 74.8617 19.1098 73.3763C19.5226 72.6634 20.2017 72.1437 20.9977 71.9316C21.7937 71.7194 22.6414 71.8321 23.3543 72.245C24.0672 72.6578 24.5869 73.3369 24.799 74.1329C25.0112 74.9289 24.8985 75.7766 24.4856 76.4895Z" fill="white"/>
<path d="M28.7301 88.3473C28.1336 89.9539 23.4928 93.5423 23.4928 93.5423C23.4928 93.5423 22.3152 87.7951 22.904 86.1808C23.2003 85.4216 23.783 84.8091 24.5266 84.4755C25.2702 84.1418 26.1151 84.1136 26.8793 84.397C27.6434 84.6804 28.2657 85.2527 28.6119 85.9906C28.9581 86.7284 29.0005 87.5727 28.7301 88.3416V88.3473Z" fill="white"/>
<path d="M7.43448 73.3263C9.11996 73.6534 14.5939 71.5523 14.5939 71.5523C14.5939 71.5523 10.3033 67.5541 8.6197 67.227C7.81867 67.0886 6.99531 67.2697 6.3262 67.7313C5.65708 68.1929 5.1955 68.8983 5.04044 69.6963C4.88537 70.4942 5.04918 71.3212 5.49673 71.9998C5.94427 72.6784 6.63992 73.1546 7.43448 73.3263Z" fill="white"/>
<path d="M12.5737 87.1295C14.2784 86.9371 18.875 83.2968 18.875 83.2968C18.875 83.2968 13.5858 80.7647 11.881 80.9571C11.4757 81.0026 11.0834 81.1274 10.7264 81.3245C10.3693 81.5217 10.0546 81.7872 9.8002 82.1059C9.28637 82.7496 9.04931 83.5711 9.14116 84.3896C9.18664 84.7949 9.31151 85.1873 9.50862 85.5443C9.70574 85.9013 9.97125 86.216 10.29 86.4705C10.9337 86.9843 11.7552 87.2214 12.5737 87.1295Z" fill="white"/>
<path d="M19.4099 99.863C21.1224 99.9612 26.2692 97.1482 26.2692 97.1482C26.2692 97.1482 21.4822 93.7599 19.7697 93.6598C18.9564 93.6281 18.1632 93.9168 17.5604 94.4638C16.9577 95.0107 16.5937 95.7724 16.5465 96.5849C16.4994 97.3975 16.773 98.1961 17.3084 98.8091C17.8439 99.4221 18.5984 99.8005 19.4099 99.863Z" fill="white"/>
<path d="M40.6575 8.6683C40.6575 8.6683 47.6803 8.245 46.853 13.1668C46.853 13.1668 47.0165 14.0364 46.2296 14.4309C46.2296 14.4309 46.2161 14.0672 45.508 14.1904C45.2539 14.2335 44.9955 14.2458 44.7384 14.2269C44.3942 14.2042 44.067 14.069 43.8072 13.8421C43.8072 13.8421 41.8312 13.0263 41.0634 9.80157C41.0634 9.80157 40.4862 9.09736 40.5189 8.9165L41.7042 9.42253C41.7042 9.42253 41.2982 10.2768 41.6176 10.9887C41.6176 10.9887 41.6561 9.44947 41.8831 9.48988C41.9293 9.48988 42.4988 9.78618 42.4988 9.78618C42.4988 9.78618 41.8023 11.2754 42.3276 12.3587C42.3276 12.3587 42.1352 10.5231 42.7124 9.89393L43.5474 10.3807C43.5474 10.3807 42.7335 11.92 43.2857 13.1745C43.2857 13.1745 43.1434 11.2504 43.7225 10.5L44.4787 11.0888C44.4787 11.0888 43.709 12.6049 44.1804 13.6459C44.1804 13.6459 44.242 11.4043 44.6422 11.235C44.6422 11.235 45.3041 11.8122 45.4118 12.0585C45.4118 12.0585 44.8866 13.1591 45.2194 13.7401C45.2194 13.7401 45.4118 12.2471 45.5831 12.2413C45.5831 12.2413 46.2411 13.2303 46.3104 13.9075C46.2777 13.2807 46.0821 12.6732 45.7428 12.1451C46.1227 12.2174 46.4732 12.3993 46.751 12.6684C46.751 12.6684 46.649 11.9681 45.5792 11.8988C45.5792 11.8988 45.0347 11.1484 44.8885 11.1042C44.8885 11.1042 45.9525 11.0137 46.5971 11.2966C46.5971 11.2966 46.0295 10.6366 44.6942 10.9368L43.9476 10.3268C43.9476 10.3268 45.3483 10.1344 45.941 10.348C45.941 10.348 45.2579 9.77079 43.7475 10.1883L42.9336 9.70345C42.9336 9.70345 44.1285 9.44562 44.8385 9.53798C44.8385 9.53798 44.0881 9.13392 42.6951 9.57261L42.1178 9.31094C42.1178 9.31094 42.9933 9.13969 43.2492 9.11853C43.5051 9.09736 43.5186 9.0204 43.5186 9.0204C42.9645 8.92796 42.3956 8.99124 41.8754 9.20319C41.8754 9.20319 40.6363 8.73564 40.6575 8.6683Z" fill="white"/>
<path d="M185.669 20.045C185.669 20.045 192.693 19.6217 191.866 24.5435C191.866 24.5435 192.03 25.4132 191.241 25.8095C191.241 25.8095 191.229 25.4439 190.521 25.5671C190.267 25.6098 190.009 25.6227 189.751 25.6056C189.407 25.5822 189.079 25.4471 188.818 25.2207C188.818 25.2207 186.844 24.4049 186.077 21.1802C186.077 21.1802 185.509 20.476 185.532 20.2951L186.717 20.8012C186.717 20.8012 186.311 21.6574 186.631 22.3674C186.631 22.3674 186.669 20.8281 186.896 20.8685C186.942 20.8685 187.512 21.1648 187.512 21.1648C187.512 21.1648 186.815 22.656 187.341 23.7373C187.341 23.7373 187.148 21.9017 187.725 21.2726L188.561 21.7593C188.561 21.7593 187.747 23.2986 188.299 24.555C188.299 24.555 188.156 22.631 188.736 21.8786L189.492 22.4693C189.492 22.4693 188.722 23.9855 189.194 25.0264C189.194 25.0264 189.255 22.7849 189.655 22.6156C189.655 22.6156 190.317 23.1928 190.425 23.4391C190.425 23.4391 189.9 24.5396 190.233 25.1207C190.233 25.1207 190.425 23.6257 190.596 23.6199C190.596 23.6199 191.254 24.6089 191.323 25.2881C191.288 24.6603 191.089 24.0527 190.746 23.5256C191.126 23.5968 191.477 23.7781 191.754 24.0471C191.754 24.0471 191.652 23.3486 190.583 23.2774C190.583 23.2774 190.038 22.5271 189.892 22.4809C189.892 22.4809 190.956 22.3924 191.601 22.6733C191.601 22.6733 191.033 22.0133 189.698 22.3135L188.959 21.7247C188.959 21.7247 190.359 21.5323 190.952 21.744C190.952 21.744 190.269 21.1667 188.759 21.5862L187.945 21.0994C187.945 21.0994 189.138 20.8416 189.85 20.9358C189.85 20.9358 189.099 20.5299 187.706 20.9686L187.129 20.7088C187.129 20.7088 188.004 20.5356 188.26 20.5164C188.516 20.4972 188.53 20.4183 188.53 20.4183C187.976 20.3258 187.407 20.3891 186.887 20.6011C186.887 20.6011 185.649 20.1239 185.669 20.045Z" fill="white"/>
<path d="M74.1708 13.3069C74.1708 13.3069 79.4024 18.0151 75.3157 20.8781C75.3157 20.8781 74.8096 21.6054 73.9688 21.3226C73.9688 21.3226 74.2189 21.057 73.634 20.6395C73.4273 20.4893 73.2388 20.3156 73.0722 20.1219C72.8452 19.8607 72.71 19.5322 72.6874 19.1868C72.6874 19.1868 71.8812 17.207 73.6494 14.3959C73.6494 14.3959 73.7533 13.4974 73.8976 13.3858L74.369 14.5864C74.369 14.5864 73.4763 14.8981 73.1934 15.6235C73.1934 15.6235 74.3132 14.5729 74.446 14.7615C74.4748 14.8 74.6672 15.408 74.6672 15.408C74.6672 15.408 73.1241 15.9525 72.7259 17.0915C72.7259 17.0915 73.8919 15.66 74.7538 15.6389L74.9924 16.574C74.9924 16.574 73.3243 17.0742 72.8182 18.3479C72.8182 18.3479 74.09 16.8972 75.0309 16.7837L75.1406 17.7457C75.1406 17.7457 73.5244 18.2633 73.1088 19.3273C73.1088 19.3273 74.75 17.788 75.1521 17.9651C75.1521 17.9651 75.2002 18.8444 75.1002 19.0849C75.1002 19.0849 73.9457 19.4851 73.7629 20.1239C73.7629 20.1239 74.9674 19.2176 75.0867 19.3292C75.0867 19.3292 74.8443 20.4933 74.4094 21.0186C74.8329 20.5554 75.1281 19.9896 75.2656 19.3773C75.4814 19.6984 75.5984 20.0757 75.6023 20.4625C75.6023 20.4625 76.0276 19.8987 75.3214 19.0945C75.3214 19.0945 75.4734 18.1786 75.4042 18.0439C75.4042 18.0439 76.2142 18.7385 76.4624 19.3908C76.4624 19.3908 76.5355 18.523 75.383 17.7823L75.2945 16.8202C75.2945 16.8202 76.4124 17.6841 76.6779 18.2556C76.6779 18.2556 76.6144 17.359 75.2502 16.5797L75.027 15.66C75.027 15.66 76.0487 16.3296 76.4816 16.903C76.4816 16.903 76.2431 16.0833 74.952 15.3983L74.7269 14.798C74.7269 14.798 75.4638 15.3002 75.662 15.4638C75.8602 15.6273 75.9217 15.5869 75.9217 15.5869C75.5988 15.1276 75.1544 14.7672 74.6384 14.546C74.6384 14.546 74.1016 13.3473 74.1708 13.3069Z" fill="white"/>
<path d="M147.27 41.7985C147.27 41.7985 152.502 46.5047 148.413 49.3697C148.413 49.3697 147.909 50.097 147.066 49.8122C147.066 49.8122 147.318 49.5467 146.733 49.1292C146.525 48.9806 146.337 48.8067 146.171 48.6116C145.945 48.3502 145.809 48.0218 145.787 47.6765C145.787 47.6765 144.982 45.6986 146.749 42.8856C146.749 42.8856 146.851 41.987 146.995 41.8754L147.466 43.076C147.466 43.076 146.574 43.3877 146.291 44.1131C146.291 44.1131 147.411 43.0645 147.545 43.2511C147.572 43.2896 147.767 43.8976 147.767 43.8976C147.767 43.8976 146.225 44.446 145.819 45.5831C145.819 45.5831 146.987 44.1535 147.847 44.1304L148.086 45.0675C148.086 45.0675 146.42 45.5658 145.912 46.8414C145.912 46.8414 147.184 45.3888 148.124 45.2753L148.236 46.2277C148.236 46.2277 146.618 46.7472 146.204 47.8093C146.204 47.8093 147.843 46.2796 148.246 46.447C148.246 46.447 148.296 47.3282 148.196 47.5687C148.196 47.5687 147.041 47.967 146.849 48.6058C146.849 48.6058 148.053 47.6996 148.173 47.8131C148.173 47.8131 147.93 48.9675 147.495 49.5005C147.919 49.0375 148.215 48.4718 148.353 47.8593C148.569 48.1805 148.685 48.5578 148.688 48.9445C148.688 48.9445 149.115 48.3807 148.407 47.5764C148.407 47.5764 148.561 46.6625 148.49 46.5259C148.49 46.5259 149.3 47.2205 149.55 47.8727C149.55 47.8727 149.621 47.005 148.471 46.2642L148.38 45.3022C148.38 45.3022 149.5 46.1642 149.766 46.7356C149.766 46.7356 149.702 45.839 148.338 45.0617L148.113 44.1401C148.113 44.1401 149.135 44.8116 149.567 45.383C149.567 45.383 149.329 44.5633 148.04 43.8803L147.818 43.2819C147.818 43.2819 148.553 43.7841 148.754 43.9496C148.954 44.115 149.011 44.0727 149.011 44.0727C148.688 43.6131 148.244 43.2521 147.728 43.0299C147.728 43.0299 147.199 41.8369 147.27 41.7985Z" fill="white"/>
<path d="M204.072 13.8475C204.072 13.8475 209.302 18.5538 205.215 21.4187C205.215 21.4187 204.711 22.146 203.868 21.8613C203.868 21.8613 204.119 21.5958 203.534 21.1782C203.327 21.0286 203.138 20.8548 202.972 20.6607C202.744 20.3996 202.609 20.071 202.587 19.7256C202.587 19.7256 201.781 17.7476 203.549 14.9346C203.549 14.9346 203.653 14.0361 203.797 13.9264L204.269 15.1251C204.269 15.1251 203.376 15.4368 203.093 16.1622C203.093 16.1622 204.213 15.1136 204.348 15.3002C204.375 15.3387 204.569 15.9467 204.569 15.9467C204.569 15.9467 203.018 16.497 202.616 17.6303C202.616 17.6303 203.782 16.2007 204.644 16.1776L204.882 17.1146C204.882 17.1146 203.214 17.6149 202.708 18.8886C202.708 18.8886 203.98 17.4359 204.921 17.3224L205.031 18.2748C205.031 18.2748 203.414 18.7943 203.001 19.8564C203.001 19.8564 204.64 18.3268 205.042 18.4942C205.042 18.4942 205.09 19.3754 204.99 19.6159C204.99 19.6159 203.836 20.0142 203.643 20.6549C203.643 20.6549 204.848 19.7487 204.967 19.8602C204.967 19.8602 204.725 21.0243 204.29 21.5477C204.714 21.0848 205.009 20.5189 205.146 19.9064C205.361 20.2277 205.478 20.6048 205.483 20.9916C205.483 20.9916 205.908 20.4278 205.202 19.6236C205.202 19.6236 205.354 18.7097 205.285 18.573C205.285 18.573 206.095 19.2676 206.343 19.9199C206.343 19.9199 206.416 19.0521 205.263 18.3094L205.175 17.3474C205.175 17.3474 206.293 18.2094 206.558 18.7808C206.558 18.7808 206.495 17.8842 205.133 17.1069L204.907 16.1872C204.907 16.1872 205.929 16.8568 206.362 17.4282C206.362 17.4282 206.123 16.6105 204.823 15.9255L204.602 15.3271C204.602 15.3271 205.338 15.8312 205.537 15.9948C205.735 16.1583 205.796 16.1179 205.796 16.1179C205.473 15.6583 205.029 15.2974 204.513 15.0751C204.513 15.0751 204.001 13.886 204.072 13.8475Z" fill="white"/>
<path d="M66.9383 34.6832C66.9383 34.6832 66.4341 41.7022 61.6625 40.2342C61.6625 40.2342 60.7793 40.2842 60.4907 39.4491C60.4907 39.4491 60.8543 39.4857 60.8255 38.768C60.8156 38.5098 60.8369 38.2514 60.889 37.9984C60.9573 37.66 61.1343 37.3533 61.3931 37.1249C61.3931 37.1249 62.4609 35.2739 65.7626 34.9372C65.7626 34.9372 66.5323 34.4658 66.7112 34.512L66.0532 35.6202C66.0532 35.6202 65.2585 35.1065 64.5139 35.3297C64.5139 35.3297 66.0301 35.5683 65.9647 35.7896C65.9512 35.8357 65.5799 36.3668 65.5799 36.3668C65.5799 36.3668 64.1945 35.4817 63.0536 35.8607C63.0536 35.8607 64.8987 35.9031 65.4452 36.5688L64.8526 37.3384C64.8526 37.3384 63.4345 36.3283 62.1165 36.7112C62.1165 36.7112 64.0406 36.8228 64.7121 37.4962L64.0271 38.1677C64.0271 38.1677 62.6245 37.2057 61.5258 37.5366C61.5258 37.5366 63.7404 37.8906 63.8559 38.3062C63.8559 38.3062 63.1902 38.8835 62.9381 38.9527C62.9381 38.9527 61.9164 38.2889 61.2988 38.5352C61.2988 38.5352 62.7515 38.9296 62.738 39.0913C62.738 39.0913 61.6702 39.6146 60.989 39.5934C61.6149 39.6446 62.2432 39.5305 62.8111 39.2625C62.6898 39.6297 62.4637 39.9534 62.1608 40.1937C62.1608 40.1937 62.8669 40.1841 63.069 39.1336C63.069 39.1336 63.8828 38.691 63.9483 38.5564C63.9483 38.5564 63.8963 39.6223 63.5288 40.2245C63.5288 40.2245 64.258 39.7493 64.1349 38.3851L64.8372 37.7252C64.8372 37.7252 64.8372 39.1394 64.5563 39.6993C64.5563 39.6993 65.2239 39.099 65.0007 37.5443L65.5895 36.8016C65.5895 36.8016 65.6876 38.0195 65.5029 38.7122C65.5029 38.7122 66.0012 38.0215 65.7511 36.5842L66.0859 36.0416C66.0859 36.0416 66.1417 36.9305 66.134 37.196C66.1263 37.4616 66.1956 37.477 66.1956 37.477C66.3595 36.9398 66.3714 36.3677 66.2302 35.8242C66.2302 35.8242 66.8632 34.6524 66.9383 34.6832Z" fill="white"/>
<path d="M147.732 26.8023C147.732 26.8023 147.228 33.8213 142.458 32.3533C142.458 32.3533 141.573 32.4014 141.286 31.5682C141.286 31.5682 141.648 31.6029 141.619 30.8852C141.61 30.6271 141.632 30.3688 141.683 30.1156C141.751 29.7772 141.928 29.4705 142.187 29.242C142.187 29.242 143.257 27.3911 146.556 27.0544C146.556 27.0544 147.326 26.5849 147.505 26.6292L146.847 27.7393C146.847 27.7393 146.052 27.2256 145.308 27.4469C145.308 27.4469 146.824 27.6874 146.758 27.9087C146.745 27.9529 146.385 28.4859 146.385 28.4859C146.385 28.4859 145 27.5989 143.857 27.9779C143.857 27.9779 145.702 28.0203 146.249 28.6879L145.656 29.4575C145.656 29.4575 144.238 28.4474 142.922 28.8303C142.922 28.8303 144.846 28.9438 145.515 29.6153L144.832 30.2887C144.832 30.2887 143.43 29.3267 142.331 29.6557C142.331 29.6557 144.546 30.0117 144.661 30.4253C144.661 30.4253 143.995 31.0026 143.745 31.0738C143.745 31.0738 142.722 30.41 142.104 30.6543C142.104 30.6543 143.559 31.0487 143.543 31.2123C143.543 31.2123 142.475 31.7356 141.794 31.7145C142.42 31.7646 143.048 31.6505 143.616 31.3835C143.495 31.7505 143.269 32.074 142.966 32.3148C142.966 32.3148 143.672 32.3148 143.874 31.2527C143.874 31.2527 144.69 30.8121 144.754 30.6755C144.754 30.6755 144.702 31.7414 144.334 32.3417C144.334 32.3417 145.063 31.8665 144.94 30.5023L145.642 29.8424C145.642 29.8424 145.642 31.2565 145.362 31.8165C145.362 31.8165 146.029 31.2161 145.806 29.6615L146.395 28.9207C146.395 28.9207 146.493 30.1367 146.308 30.8294C146.308 30.8294 146.808 30.1387 146.556 28.7014L146.891 28.1588C146.891 28.1588 146.947 29.0496 146.939 29.3132C146.932 29.5768 147.001 29.5942 147.001 29.5942C147.166 29.0572 147.178 28.4848 147.035 27.9414C147.035 27.9414 147.657 26.7696 147.732 26.8023Z" fill="white"/>
<path d="M194.135 0.646446C194.135 0.646446 193.632 7.66545 188.861 6.19738C188.861 6.19738 187.978 6.24549 187.689 5.41236C187.689 5.41236 188.053 5.447 188.022 4.72932C188.013 4.47108 188.035 4.21267 188.087 3.95969C188.156 3.62136 188.333 3.31462 188.591 3.08617C188.591 3.08617 189.659 1.23521 192.959 0.898499C192.959 0.898499 193.729 0.429026 193.908 0.47328L193.251 1.58347C193.251 1.58347 192.457 1.06974 191.712 1.29101C191.712 1.29101 193.228 1.53152 193.163 1.75279C193.149 1.79704 192.778 2.33001 192.778 2.33001C192.778 2.33001 191.393 1.44301 190.25 1.82205C190.25 1.82205 192.095 1.86438 192.642 2.53203L192.051 3.30166C192.051 3.30166 190.646 2.29152 189.324 2.67634C189.324 2.67634 191.248 2.78986 191.918 3.46136L191.235 4.13478C191.235 4.13478 189.832 3.17275 188.734 3.50176C188.734 3.50176 190.946 3.85772 191.062 4.27139C191.062 4.27139 190.396 4.84861 190.146 4.9198C190.146 4.9198 189.124 4.256 188.505 4.50036C188.505 4.50036 189.959 4.89479 189.944 5.05834C189.944 5.05834 188.876 5.58168 188.195 5.56052C188.821 5.61063 189.449 5.49656 190.017 5.22958C189.896 5.59695 189.67 5.92075 189.367 6.16083C189.367 6.16083 190.075 6.16083 190.275 5.09874C190.275 5.09874 191.091 4.65813 191.154 4.52152C191.154 4.52152 191.104 5.58745 190.735 6.18776C190.735 6.18776 191.464 5.71252 191.343 4.34835L192.045 3.6884C192.045 3.6884 192.045 5.10259 191.762 5.66249C191.762 5.66249 192.432 5.06218 192.209 3.50754L192.797 2.76677C192.797 2.76677 192.895 3.98278 192.709 4.67545C192.709 4.67545 193.209 3.98471 192.957 2.54743L193.292 2.00484C193.292 2.00484 193.348 2.89568 193.342 3.15928C193.336 3.42288 193.403 3.44019 193.403 3.44019C193.567 2.90303 193.579 2.33098 193.438 1.78742C193.438 1.78742 194.069 0.613737 194.135 0.646446Z" fill="white"/>
</svg>
