<svg width="261" height="192" viewBox="0 0 261 192" fill="none" xmlns="http://www.w3.org/2000/svg">
<path opacity="0.5" d="M2.68583 135.424C0.317383 128.094 -0.273829 119.257 4.20745 110.821C4.36894 110.511 4.54217 110.201 4.71547 109.896C4.97902 109.447 5.24658 109.003 5.52118 108.568C5.59242 108.455 5.65797 108.351 5.73894 108.235C6.35698 107.308 7.03277 106.401 7.76184 105.52C13.1397 98.9887 21.143 93.9965 29.0411 90.4608C30.523 89.8006 32.0104 89.1722 33.5023 88.5783C34.6855 88.1045 35.8711 87.65 37.0597 87.2038L37.0829 87.1869C37.2703 87.1154 37.4606 87.0439 37.6521 86.9821L38.2657 86.7449C39.3651 86.3386 40.4659 85.9382 41.5681 85.5439C42.8649 85.0756 44.1617 84.6116 45.4555 84.1433C49.1776 82.7961 52.8911 81.4045 56.5661 79.7819C58.0938 79.1073 59.6188 78.3966 61.1245 77.6474C65.6294 75.4275 70.0502 72.9425 74.4518 70.4231L76.7295 69.1146C79.0429 67.7864 81.3689 66.4469 83.6747 65.0716C86.0733 63.6412 88.4516 62.1708 90.7776 60.6207C95.1582 57.7078 99.3453 54.5297 103.074 50.894C105.908 48.1307 108.448 45.1352 110.863 42.0496C118.633 32.1271 125.126 21.3004 135.953 14.4266C141.349 11.0002 147.285 8.95095 153.108 7.06653C161.464 4.36 169.94 1.85167 178.13 0.738248C180.438 0.418523 182.721 0.223198 184.967 0.153308C185.029 0.148442 185.09 0.147731 185.151 0.145641L185.204 0.145032L185.273 0.142847L185.386 0.140155C187.056 0.101455 188.696 0.140706 190.314 0.24121L191.782 0.348978C194.16 0.551573 196.485 0.883691 198.77 1.29527L199.497 1.42131L199.919 1.50098C201.361 1.78001 202.791 2.08366 204.21 2.41193C206.391 2.91203 208.551 3.45673 210.693 4.00026C214.345 4.91581 218.091 5.88156 220.712 8.0634C222.271 9.37882 223.425 11.0482 224.113 12.982C224.382 13.7204 224.601 14.485 224.767 15.2725C224.79 15.3887 224.814 15.4993 224.834 15.6155C225.074 16.8929 225.218 18.2086 225.266 19.5552C225.663 28.9037 222.601 40.3713 227.941 47.1276C232.063 52.3345 240.216 53.4558 247.273 55.506C254.329 57.5562 261.233 61.7953 260.304 69.3088C259.528 75.677 253.401 81.931 247.49 87.1319C241.481 92.4376 235.21 97.4833 228.715 102.238C223.798 105.846 218.53 108.456 213.619 111.865C207.61 116.04 202.49 122.775 197.549 127.938C191.82 133.92 186.097 139.895 180.382 145.864C170.61 156.068 160.713 166.371 149.175 174.88C137.638 183.389 124.092 190.027 111.392 191.036C107.041 191.379 102.759 191.028 99.5822 189.22C92.9742 185.458 92.3649 176.271 85.8403 172.417C80.2125 169.103 71.6305 170.498 63.8734 170.965C34.5019 172.716 10.1617 158.578 2.68583 135.424Z" fill="white"/>
</svg>
