<svg width="206" height="160" viewBox="0 0 206 160" fill="none" xmlns="http://www.w3.org/2000/svg">
<path opacity="0.35" d="M203.55 134.236C201.611 142.509 197.799 150.975 190.878 155.693C190.626 155.868 190.366 156.036 190.109 156.199C189.724 156.434 189.339 156.661 188.954 156.875C188.854 156.93 188.762 156.982 188.654 157.034C187.812 157.469 186.941 157.847 186.049 158.166C179.449 160.546 171.872 159.77 165.055 157.735C163.778 157.35 162.512 156.932 161.259 156.48C160.264 156.124 159.277 155.749 158.292 155.364H158.269C158.113 155.305 157.955 155.243 157.802 155.172L157.29 154.979C156.382 154.618 155.475 154.249 154.571 153.875C153.505 153.438 152.441 152.998 151.377 152.563C148.316 151.312 145.239 150.108 142.078 149.14C140.764 148.738 139.434 148.37 138.099 148.051C134.114 147.075 130.058 146.398 125.999 145.765L123.896 145.442C121.76 145.113 119.611 144.786 117.458 144.505C115.218 144.212 112.973 143.97 110.723 143.835C106.49 143.575 102.257 143.687 98.1054 144.522C94.9499 145.157 91.8752 146.2 88.839 147.408C79.0725 151.291 69.708 156.851 59.4008 155.913C54.2635 155.445 49.4283 153.359 44.7452 151.199C38.0244 148.101 31.319 144.741 25.4622 140.299C23.8089 139.052 22.2309 137.709 20.7366 136.275C20.6943 136.239 20.6539 136.199 20.6135 136.16L20.5789 136.125L20.5327 136.081L20.4577 136.008C19.3532 134.931 18.3046 133.801 17.3003 132.631L16.3959 131.554C14.9452 129.784 13.5907 127.931 12.2996 126.032L11.8859 125.431L11.6493 125.077C10.8437 123.861 10.0574 122.631 9.29036 121.385C8.10898 119.475 6.96224 117.537 5.82704 115.613C3.88565 112.342 1.90771 108.963 1.23813 105.223C0.848762 102.983 0.890556 100.688 1.36127 98.4637C1.53664 97.6098 1.75758 96.7658 2.02315 95.9355C2.06356 95.8143 2.10011 95.6969 2.14244 95.5776C2.593 94.2511 3.12374 92.9531 3.73173 91.691C7.91273 82.8884 15.3492 74.4552 15.0837 64.7252C14.874 57.2213 10.1023 50.7622 6.48507 44.1857C2.86782 37.6093 0.389618 29.1357 4.561 22.8921C8.08974 17.5932 15.0452 15.9654 21.36 15.1554C27.7884 14.315 34.2639 13.8869 40.747 13.874C45.6591 13.8566 50.325 14.9842 55.139 15.1439C61.0305 15.3363 67.5588 12.5983 73.2252 11.1764C79.7927 9.53198 86.3525 7.88883 92.9046 6.24696C104.107 3.44167 115.437 0.628679 126.984 0.547868C138.53 0.467057 150.494 3.43397 159.235 10.9782C162.229 13.5661 164.847 16.7408 166.056 20.5101C168.569 28.3507 164.603 37.1475 167.018 45.0169C169.105 51.7954 175.351 56.242 180.619 60.9867C200.558 78.9671 209.68 108.105 203.55 134.236Z" fill="white"/>
</svg>
